<?xml version="1.0" standalone="yes"?>
<svg xmlns="http://www.w3.org/2000/svg" width="1024" height="1024">
<path style="fill:#010713; stroke:none;" d="M0 0L0 1024L1024 1024L1024 0L0 0z"/>
<path style="fill:#01c8fe; stroke:none;" d="M700.004 313.786C694.35 315.644 691.068 323.281 688.203 328C682.753 336.978 677.523 346.097 671.95 355C668.516 360.486 663.556 366.663 661.894 373C659.984 380.285 669.36 386.416 675.907 384.562C681.199 383.064 683.931 375.344 686.421 371L703.719 341C706.261 336.541 709.89 331.955 711.35 327C713.281 320.448 707.678 311.263 700.004 313.786z"/>
<path style="fill:#0395e9; stroke:none;" d="M704 313L705 314L704 313M706 314L707 315L706 314M696 315L697 316L696 315M695 316L696 317L695 316M709 316L710 317L709 316M693 319L694 320L693 319M692 321L693 322L692 321M691 322L692 323L691 322M712 322L712 326C712.71 324.241 712.71 323.759 712 322M690 324L691 325L690 324M300 329C306.518 325.375 315.737 327 323 327L372 327C366.784 324.811 359.619 326 354 326L317 326C311.785 326 303.149 324.142 300 329z"/>
<path style="fill:#01c8fe; stroke:none;" d="M301 327C302.796 336.314 310.366 345.882 315.201 354C324.462 369.55 333.169 385.429 342.397 401C372.903 452.48 402.601 504.454 433 556C433.47 553.236 432.369 551.447 431 549C433.996 548.775 435.249 548.448 437 546L432 547C432.545 545.365 432.365 545.545 434 545L433 540L435 541C436.625 538.968 439.255 538.745 441 537C442.515 535.485 441.852 531.913 443 530L444 531C440.773 520.807 433.169 511.265 427.85 502C418.453 485.63 409.024 469.237 399.397 453C393.545 443.131 386.86 433.396 382 423C386.941 423 394.454 421.602 398.907 424.028C402.835 426.167 404.995 431.326 407.2 435C412.383 443.639 417.42 452.361 422.6 461C445.979 499.987 467.909 539.845 491 579C495.072 575.834 498.157 575.863 503 575L503 577C505.166 575.836 507.034 574.486 509 573C509.289 575.384 508.91 575.387 511 575C511.98 576.783 511.908 576.594 514 577C511.568 570.316 507.538 564.156 504 558C502.364 555.153 499.367 551.448 499.542 548C499.822 542.472 506.118 535.6 508.939 531C516.198 519.165 522.984 506.991 529.988 495C548.262 463.719 566.389 432.336 584.576 401C590.754 390.355 596.757 379.611 602.989 369C605.828 364.167 608.18 358.451 611.789 354.144C618.631 345.977 632.046 352.052 640.957 349.682C647.64 347.905 653.587 333.176 655 327C642.336 323.985 628.802 326.995 616 327C611.82 327.002 604.227 325.548 600.634 328.028C597.376 330.276 595.51 335.668 593.576 339C589.12 346.678 584.57 354.301 580.15 362C565.935 386.76 551.469 411.382 537.011 436C533.099 442.661 529.105 449.288 525.281 456C522.582 460.736 520.337 465.597 516 469C512.088 456.638 502.744 445.194 496.284 434C482.409 409.961 468.552 385.875 454.397 362C449.259 353.335 444.183 344.637 439 336C437.159 332.932 435.282 328.108 431.79 326.603C428.449 325.164 423.562 326 420 326L394 326C363.031 326 332.032 327 301 327z"/>
<path style="fill:#0395e9; stroke:none;" d="M601 326C607.928 328.907 618.503 327 626 327C619.072 324.093 608.497 326 601 326M653.667 326.333C653.222 326.778 654.278 326.722 654.333 326.667C654.778 326.222 653.722 326.278 653.667 326.333M655 327L656 328L655 327M711 327L712 328L711 327M434 328L435 329L434 328M599 328L600 329L599 328M687 329L688 330L687 329M710 329L711 330L710 329M301 330L302 331L301 330M435 330L436 331L435 330M598 330L599 331L598 330M436 331L437 332L436 331M653 331L654 332L653 331M597 332L598 333L597 332M685 332L686 333L685 332M708 332L709 333L708 332M303 333L304 334L303 333M437 333L438 334L437 333M652 333L653 334L652 333M684 334L685 335L684 334M707 334L708 335L707 334M304 335L305 336L304 335M438 335L439 336L438 335M595 335L596 336L595 335M651 335L652 336L651 335M594 337L595 338L594 337M650 337L651 338L650 337M682 337L683 338L682 337M705 337L706 338L705 337M306 338L307 339L306 338M440 338L441 339L440 338M593 339L594 340L593 339M681 339L682 340L681 339M704 339L705 340L704 339M307 340L308 341L307 340M441 340L442 341L441 340M591 342L592 343L591 342M647 342L648 343L647 342M679 342L680 343L679 342M443 343L444 344L443 343M590 344L591 345L590 344M646 344L647 345L646 344M678 344L679 345L678 344M701 344L702 345L701 344M310 345L311 346L310 345M444 345L445 346L444 345M645 346L646 347L645 346M700 346L701 347L700 346M311 347L312 348L311 347M588 347L589 348L588 347M676 347L677 348L676 347M446 348L447 349L446 348M644 348L645 349L644 348M312 349L313 350L312 349M587 349L588 350L587 349M643 349L644 350L643 349M675 349L676 350L675 349M698 349L699 350L698 349M447 350L448 351L447 350M617 350C619.613 351.098 622.164 350.993 625 351C622.387 349.902 619.836 350.007 617 350M341 351L342 352L341 351z"/>
<path style="fill:#010713; stroke:none;" d="M342 351C346.054 363.812 355.486 376.325 362.15 388C364.286 391.742 366.552 398.417 371.105 399.682C379.503 402.016 391.287 400.096 400 399.996C404.279 399.947 408.317 398.833 411.671 402.163C415.188 405.654 417.471 410.784 420 415C425.367 423.945 430.657 432.953 435.85 442C451.375 469.043 466.839 496.983 484 523C491.174 519.332 495.273 508.69 499.424 502C501.087 499.318 503.584 496.369 502.958 493C502.241 489.147 498.963 485.323 497.011 482L483.603 459C469.497 435.146 456.026 410.9 441.989 387C437.103 378.68 432.315 370.3 427.397 362C425.57 358.918 423.727 354.007 420.61 352.028C415.683 348.899 404.69 351 399 351L342 351z"/>
<path style="fill:#0395e9; stroke:none;" d="M586 351L587 352L586 351M697 351L698 352L697 351M314 352L315 353L314 352M448 352L449 353L448 352M612 352L613 353L612 352M673 352L674 353L673 352M342 353L343 354L342 353M422 353L423 354L422 353M696 353L697 354L696 353M315 354L316 355L315 354M584 354L585 355L584 354M672 354L673 355L672 354M343 355L344 356L343 355M423 355L424 356L423 355M450 355L451 356L450 355M610 355L611 356L610 355M671 355L672 356L671 355M344 356L345 357L344 356M583 356L584 357L583 356M694 356L695 357L694 356M317 357L318 358L317 357M424 357L425 358L424 357M451 357L452 358L451 357M609 357L610 358L609 357M670 357L671 358L670 357M345 358L346 359L345 358M693 358L694 359L693 358M318 359L319 360L318 359M581 359L582 360L581 359M608 359L609 360L608 359M346 360L347 361L346 360M426 360L427 361L426 360M453 360L454 361L453 360M692 360L693 361L692 360M319 361L320 362L319 361M580 361L581 362L580 361M427 362L428 363L427 362M454 362L455 363L454 362M606 362L607 363L606 362M667 362L668 363L667 362M348 363L349 364L348 363M579 363L580 364L579 363M690 363L691 364L690 363M321 364L322 365L321 364M605 364L606 365L605 364M349 365L350 366L349 365M429 365L430 366L429 365M456 365L457 366L456 365M665 365L666 366L665 365M689 365L690 366L689 365M322 366L323 367L322 366M577 366L578 367L577 366M604 366L605 367L604 366M350 367L351 368L350 367M430 367L431 368L430 367M457 367L458 368L457 367M664 367L665 368L664 367M688 367L689 368L688 367M323 368L324 369L323 368M576 368L577 369L576 368M431 369L432 370L431 369M458 369L459 370L458 369M602 369L603 370L602 369M663 369L664 370L663 369M352 370L353 371L352 370M686 370L687 371L686 370M325 371L326 372L325 371M574 371L575 372L574 371M601 371L602 372L601 371M353 372L354 373L353 372M433 372L434 373L433 372M460 372L461 373L460 372M685 372L686 373L685 372M326 373L327 374L326 373M573 373L574 374L573 373M661 373L662 374L661 373M354 374L355 375L354 374M434 374L435 375L434 374M461 374L462 375L461 374M599 374L600 375L599 374M684 374L685 375L684 374M327 375L328 376L327 375M572 375L573 376L572 375M462 376L463 377L462 376M598 376L599 377L598 376M436 377L437 378L436 377M661 377L662 378L661 377M682 377L683 378L682 377M329 378L330 379L329 378M570 378L571 379L570 378M597 378L598 379L597 378M357 379L358 380L357 379M437 379L438 380L437 379M464 379L465 380L464 379M662 379L663 380L662 379M681 379L682 380L681 379M330 380L331 381L330 380M569 380L570 381L569 380M596 380L597 381L596 380M663 380L664 381L663 380M358 381L359 382L358 381M438 381L439 382L438 381M465 381L466 382L465 381M664 381L665 382L664 381M680 381L681 382L680 381M331 382L332 383L331 382M568 382L569 383L568 382M679 382L680 383L679 382M332 383L333 384L332 383M359 383L360 384L359 383M567 383L568 384L567 383M594 383L595 384L594 383M667 383L668 384L667 383M440 384L441 385L440 384M467 384L468 385L467 384M669 384L670 385L669 384M677 384L678 385L677 384M333 385L334 386L333 385M566 385L567 386L566 385M593 385L594 386L593 385M672 385C673.506 385.683 674.315 385.826 676 386C674.494 385.317 673.685 385.174 672 385M361 386L362 387L361 386M441 386L442 387L441 386M468 386L469 387L468 386M334 387L335 388L334 387M565 387L566 388L565 387M362 388L363 389L362 388M469 388L470 389L469 388M591 388L592 389L591 388M443 389L444 390L443 389M336 390L337 391L336 390M363 390L364 391L363 390M563 390L564 391L563 390M590 390L591 391L590 390M444 391L445 392L444 391M471 391L472 392L471 391M337 392L338 393L337 392M562 392L563 393L562 392M365 393L366 394L365 393M445 393L446 394L445 393M472 393L473 394L472 393M338 394L339 395L338 394M561 394L562 395L561 394M366 395L367 396L366 395M587 395L588 396L587 395M447 396L448 397L447 396M340 397L341 398L340 397M367 397L368 398L367 397M559 397L560 398L559 397M586 397L587 398L586 397M448 398L449 399L448 398M475 398L476 399L475 398M341 399L342 400L341 399M406 399C407.506 399.683 408.315 399.826 410 400C408.494 399.317 407.685 399.174 406 399M558 399L559 400L558 399M476 400L477 401L476 400z"/>
<path style="fill:#01c8fe; stroke:none;" d="M552 521L554 520C552.027 524.844 548.104 534.707 556.991 534.712C558.682 534.713 560.351 534.313 562 534L559 530C560.537 529.31 560.338 529.672 560 528C563.302 526.517 565.321 525.188 569 526L568 522L573 523L574 519L577 521C589.302 497.886 603.554 475.718 616.579 453C620.219 446.65 623.9 440.329 627.576 434C629.433 430.802 631.097 426.831 634.185 424.603C638.405 421.56 646.051 423 651 423C634.853 453.656 615.806 482.94 598.573 513C591.28 525.72 580.429 539.007 576 553L578 552L577 556L582 557C581.014 558.479 581 558.203 581 560L584 559L584 562L586 562L585 564L589 564C589.028 566.323 589.156 566.597 591 568C591 566.203 590.986 566.479 590 565L594 567C600.3 553.522 609.104 540.873 616.576 528C633.628 498.618 650.803 469.295 668.011 440C675.365 427.48 683.856 415.159 690 402C685.375 400.633 680.768 401.237 676 400.911C663.983 400.088 652.072 400 640 400C635.246 400 626.663 398.357 622.529 401.028C619.355 403.078 617.485 407.858 615.6 411C611.006 418.657 606.295 426.256 601.85 434C590.312 454.1 578.177 473.858 566.719 494C561.794 502.658 555.011 511.485 552 521z"/>
<path style="fill:#0395e9; stroke:none;" d="M672 400C676.724 401.982 682.91 401 688 401C683.276 399.018 677.09 400 672 400M450 401L451 402L450 401M621 401L622 402L621 401M343 402L344 403L343 402M412 402L413 403L412 402M556 402L557 403L556 402M583 402L584 403L583 402M620 402L621 403L620 402M451 403L452 404L451 403M478 403L479 404L478 403M689 403L690 404L689 403M344 404L345 405L344 404M555 404L556 405L555 404M582 404L583 405L582 404M619 404L620 405L619 404M414 405L415 406L414 405M452 405L453 406L452 405M479 405L480 406L479 405M345 406L346 407L345 406M453 406L454 407L453 406M554 406L555 407L554 406M618 406L619 407L618 406M687 406L688 407L687 406M415 407L416 408L415 407M480 407L481 408L480 407M580 407L581 408L580 407M454 408L455 409L454 408M686 408L687 409L686 408M347 409L348 410L347 409M552 409L553 410L552 409M579 409L580 410L579 409M616 409L617 410L616 409M417 410L418 411L417 410M455 410L456 411L455 410M482 410L483 411L482 410M685 410L686 411L685 410M348 411L349 412L348 411M551 411L552 412L551 411M615 411L616 412L615 411M349 412L350 413L349 412M418 412L419 413L418 412M456 412L457 413L456 412M483 412L484 413L483 412M577 412L578 413L577 412M614 412L615 413L614 412M550 413L551 414L550 413M683 413L684 414L683 413M350 414L351 415L350 414M576 414L577 415L576 414M613 414L614 415L613 414M420 415L421 416L420 415M458 415L459 416L458 415M485 415L486 416L485 415M682 415L683 416L682 415M351 416L352 417L351 416M548 416L549 417L548 416M612 416L613 417L612 416M421 417L422 418L421 417M459 417L460 418L459 417M486 417L487 418L486 417M547 418L548 419L547 418M680 418L681 419L680 418M353 419L354 420L353 419M573 419L574 420L573 419M610 419L611 420L610 419M423 420L424 421L423 420M461 420L462 421L461 420M488 420L489 421L488 420M679 420L680 421L679 420M354 421L355 422L354 421M545 421L546 422L545 421M572 421L573 422L572 421M609 421L610 422L609 421M424 422L425 423L424 422M462 422L463 423L462 422M489 422L490 423L489 422M355 423L356 424L355 423M382 425C387.901 423.595 393.968 424 400 424C395.802 422.239 385.154 421.391 382 425M544 423L545 424L544 423M571 423L572 424L571 423z"/>
<path style="fill:#010713; stroke:none;" d="M383 424C386 433.476 392.96 442.437 397.989 451C407.565 467.303 417.085 483.647 426.576 500C456.199 551.042 485.194 602.666 516 653C522.879 646.214 527.119 635.329 532.011 627C542.967 608.346 554.125 589.787 564.85 571C583.594 538.164 602.862 505.601 622.011 473C631.676 456.546 642.927 440.292 651 423C646.287 423 638.482 421.51 634.329 424.028C631.017 426.035 629.295 430.797 627.397 434C622.476 442.303 617.759 450.719 612.8 459C590.986 495.432 569.312 532.11 548.281 569C541.574 580.765 534.511 592.351 527.603 604C525.213 608.032 522.431 614.837 517 615.338C511.565 615.839 508.476 608.85 506.281 605C499.031 592.285 491.526 579.716 484.281 567C463.881 531.195 443.371 495.358 422.2 460C417.025 451.357 411.983 442.638 406.8 434C404.979 430.964 403.1 426.134 399.671 424.603C395.202 422.608 387.835 424 383 424z"/>
<path style="fill:#0395e9; stroke:none;" d="M677 423L678 424L677 423M425 424L426 425L425 424M463 424L464 425L463 424M490 424L491 425L490 424M607 424L608 425L607 424M650 424L651 425L650 424M401 425L402 426L401 425M464 425L465 426L464 425M632 425L633 426L632 425M676 425L677 426L676 425M357 426L358 427L357 426M383 426L384 427L383 426M542 426L543 427L542 426M569 426L570 427L569 426M606 426L607 427L606 426M427 427L428 428L427 427M465 427L466 428L465 427M492 427L493 428L492 427M648 427L649 428L648 427M675 427L676 428L675 427M358 428L359 429L358 428M403 428L404 429L403 428M541 428L542 429L541 428M568 428L569 429L568 428M630 428L631 429L630 428M385 429L386 430L385 429M428 429L429 430L428 429M466 429L467 430L466 429M493 429L494 430L493 429M604 429L605 430L604 429M647 429L648 430L647 429M404 430L405 431L404 430M540 430L541 431L540 430M629 430L630 431L629 430M673 430L674 431L673 430M386 431L387 432L386 431M566 431L567 432L566 431M603 431L604 432L603 431M646 431L647 432L646 431M430 432L431 433L430 432M495 432L496 433L495 432M628 432L629 433L628 432M672 432L673 433L672 432M361 433L362 434L361 433M406 433L407 434L406 433M538 433L539 434L538 433M565 433L566 434L565 433M388 434L389 435L388 434M431 434L432 435L431 434M469 434L470 435L469 434M496 434L497 435L496 434M644 434L645 435L644 434M362 435L363 436L362 435M407 435L408 436L407 435M537 435L538 436L537 435M564 435L565 436L564 435M626 435L627 436L626 435M670 435L671 436L670 435M389 436L390 437L389 436M470 436L471 437L470 436M497 436L498 437L497 436M600 436L601 437L600 436M643 436L644 437L643 436M433 437L434 438L433 437M625 437L626 438L625 437M669 437L670 438L669 437M364 438L365 439L364 438M390 438L391 439L390 438M409 438L410 439L409 438M535 438L536 439L535 438M562 438L563 439L562 438M599 438L600 439L599 438M391 439L392 440L391 439M434 439L435 440L434 439M472 439L473 440L472 439M499 439L500 440L499 439M641 439L642 440L641 439M365 440L366 441L365 440M410 440L411 441L410 440M534 440L535 441L534 440M561 440L562 441L561 440M623 440L624 441L623 440M667 440L668 441L667 440M392 441L393 442L392 441M435 441L436 442L435 441M473 441L474 442L473 441M640 441L641 442L640 441M501 442L502 443L501 442M533 442L534 443L533 442M622 442L623 443L622 442M666 442L667 443L666 442M367 443L368 444L367 443M393 443L394 444L393 443M412 443L413 444L412 443M474 443L475 444L474 443M559 443L560 444L559 443M596 443L597 444L596 443M437 444L438 445L437 444M502 444L503 445L502 444M621 444L622 445L621 444M638 444L639 445L638 444M368 445L369 446L368 445M413 445L414 446L413 445M531 445L532 446L531 445M558 445L559 446L558 445M595 445L596 446L595 445M395 446L396 447L395 446M438 446L439 447L438 446M476 446L477 447L476 446M503 446L504 447L503 446M637 446L638 447L637 446M369 447L370 448L369 447M414 447L415 448L414 447M530 447L531 448L530 447M557 447L558 448L557 447M619 447L620 448L619 447M663 447L664 448L663 447M396 448L397 449L396 448M415 448L416 449L415 448M477 448L478 449L477 448M593 448L594 449L593 448M636 448L637 449L636 448M440 449L441 450L440 449M505 449L506 450L505 449M618 449L619 450L618 449M662 449L663 450L662 449M371 450L372 451L371 450M416 450L417 451L416 450M555 450L556 451L555 450M592 450L593 451L592 450M398 451L399 452L398 451M441 451L442 452L441 451M479 451L480 452L479 451M506 451L507 452L506 451M591 451L592 452L591 451M617 451L618 452L617 451M634 451L635 452L634 451M372 452L373 453L372 452M417 452L418 453L417 452M527 452L528 453L527 452M554 452L555 453L554 452M660 452L661 453L660 452M399 453L400 454L399 453M480 453L481 454L480 453M590 453L591 454L590 453M633 453L634 454L633 453M373 454L374 455L373 454M443 454L444 455L443 454M508 454L509 455L508 454M553 454L554 455L553 454M615 454L616 455L615 454M659 454L660 455L659 454M419 455L420 456L419 455M481 455L482 456L481 455M525 455L526 456L525 455M589 455L590 456L589 455M632 455L633 456L632 455M444 456L445 457L444 456M509 456L510 457L509 456M614 456L615 457L614 456M375 457L376 458L375 457M420 457L421 458L420 457M482 457L483 458L482 457M524 457L525 458L524 457M551 457L552 458L551 457M402 458L403 459L402 458M587 458L588 459L587 458M630 458L631 459L630 458M376 459L377 460L376 459M446 459L447 460L446 459M523 459L524 460L523 459M550 459L551 460L550 459M656 459L657 460L656 459M403 460L404 461L403 460M422 460L423 461L422 460M484 460L485 461L484 460M586 460L587 461L586 460M629 460L630 461L629 460M447 461L448 462L447 461M512 461L513 462L512 461M611 461L612 462L611 461M655 461L656 462L655 461M378 462L379 463L378 462M423 462L424 463L423 462M485 462L486 463L485 462M521 462L522 463L521 462M585 462L586 463L585 462M405 463L406 464L405 463M513 463L514 464L513 463M627 463L628 464L627 463M379 464L380 465L379 464M449 464L450 465L449 464M520 464L521 465L520 464M547 464L548 465L547 464M653 464L654 465L653 464M406 465L407 466L406 465M425 465L426 466L425 465M487 465L488 466L487 465M583 465L584 466L583 465M626 465L627 466L626 465M450 466L451 467L450 466M515 466L516 467L515 466M519 466L520 467L519 466M546 466L547 467L546 466M608 466L609 467L608 466M652 466L653 467L652 466M381 467L382 468L381 467M407 467L408 468L407 467M426 467L427 468L426 467M488 467L489 468L488 467M582 467L583 468L582 467M516 468L517 469L516 468M607 468L608 469L607 468M624 468L625 469L624 468M651 468L652 469L651 468M382 469L383 470L382 469M427 469L428 470L427 469M452 469L453 470L452 469M489 469L490 470L489 469M544 469L545 470L544 469M581 469L582 470L581 469M650 469L651 470L650 469M409 470L410 471L409 470M580 470L581 471L580 470M623 470L624 471L623 470M383 471L384 472L383 471M543 471L544 472L543 471M605 471L606 472L605 471M649 471L650 472L649 471M410 472L411 473L410 472M429 472L430 473L429 472M454 472L455 473L454 472M491 472L492 473L491 472M579 472L580 473L579 472M604 473L605 474L604 473M621 473L622 474L621 473M648 473L649 474L648 473M385 474L386 475L385 474M411 474L412 475L411 474M430 474L431 475L430 474M455 474L456 475L455 474M492 474L493 475L492 474M577 475L578 476L577 475M603 475L604 476L603 475M620 475L621 476L620 475M386 476L387 477L386 476M431 476L432 477L431 476M456 476L457 477L456 476M540 476L541 477L540 476M646 476L647 477L646 476M413 477L414 478L413 477M576 477L577 478L576 477M619 477L620 478L619 477M387 478L388 479L387 478M539 478L540 479L539 478M601 478L602 479L601 478M645 478L646 479L645 478M414 479L415 480L414 479M433 479L434 480L433 479M458 479L459 480L458 479M495 479L496 480L495 479M575 479L576 480L575 479M600 480L601 481L600 480M617 480L618 481L617 480M389 481L390 482L389 481M415 481L416 482L415 481M434 481L435 482L434 481M459 481L460 482L459 481M496 481L497 482L496 481M537 481L538 482L537 481M643 481L644 482L643 481M416 482L417 483L416 482M573 482L574 483L573 482M616 482L617 483L616 482M390 483L391 484L390 483M536 483L537 484L536 483M598 483L599 484L598 483M642 483L643 484L642 483M417 484L418 485L417 484M436 484L437 485L436 484M461 484L462 485L461 484M498 484L499 485L498 484M572 484L573 485L572 484M597 485L598 486L597 485M614 485L615 486L614 485M641 485L642 486L641 485M392 486L393 487L392 486M437 486L438 487L437 486M462 486L463 487L462 486M499 486L500 487L499 486M534 486L535 487L534 486M419 487L420 488L419 487M570 487L571 488L570 487M596 487L597 488L596 487M613 487L614 488L613 487M393 488L394 489L393 488M438 488L439 489L438 488M533 488L534 489L533 488M639 488L640 489L639 488M420 489L421 490L420 489M464 489L465 490L464 489M501 489L502 490L501 489M569 489L570 490L569 489M532 490L533 491L532 490M594 490L595 491L594 490M638 490L639 491L638 490M395 491L396 492L395 491M421 491L422 492L421 491M440 491L441 492L440 491M465 491L466 492L465 491M502 491L503 492L502 491M567 492L568 493L567 492M593 492L594 493L593 492M610 492L611 493L610 492M637 492L638 493L637 492M396 493L397 494L396 493M441 493L442 494L441 493M423 494L424 495L423 494M467 494L468 495L467 494M566 494L567 495L566 494M609 494L610 495L609 494M397 495L398 496L397 495M503 495L504 496L503 495M529 495L530 496L529 495M635 495L636 496L635 495M424 496L425 497L424 496M443 496L444 497L443 496M468 496L469 497L468 496M565 496L566 497L565 496M528 497L529 498L528 497M590 497L591 498L590 497M607 497L608 498L607 497M634 497L635 498L634 497M399 498L400 499L399 498M444 498L445 499L444 498M469 498L470 499L469 498M501 498L502 499L501 498M426 499L427 500L426 499M563 499L564 500L563 499M606 499L607 500L606 499M400 500L401 501L400 500M445 500L446 501L445 500M526 500L527 501L526 500M632 500L633 501L632 500M427 501L428 502L427 501M471 501L472 502L471 501M499 501L500 502L499 501M562 501L563 502L562 501M525 502L526 503L525 502M587 502L588 503L587 502M604 502L605 503L604 502M631 502L632 503L631 502M402 503L403 504L402 503M428 503L429 504L428 503M447 503L448 504L447 503M472 503L473 504L472 503M498 503L499 504L498 503M561 503L562 504L561 503M586 504L587 505L586 504M603 504L604 505L603 504M403 505L404 506L403 505M448 505L449 506L448 505M523 505L524 506L523 505M629 505L630 506L629 505M430 506L431 507L430 506M496 506L497 507L496 506M559 506L560 507L559 506M522 507L523 508L522 507M584 507L585 508L584 507M628 507L629 508L628 507M431 508L432 509L431 508M450 508L451 509L450 508M475 508L476 509L475 508M495 508L496 509L495 508M558 508L559 509L558 508M494 509L495 510L494 509M583 509L584 510L583 509M600 509L601 510L600 509M406 510L407 511L406 510M451 510L452 511L451 510M476 510L477 511L476 510M520 510L521 511L520 510M493 511L494 512L493 511M599 511L600 512L599 511M407 512L408 513L407 512M452 512L453 513L452 512M519 512L520 513L519 512M625 512L626 513L625 512M434 513L435 514L434 513M478 513L479 514L478 513M555 513L556 514L555 513M598 513L599 514L598 513M491 514L492 515L491 514M518 514L519 515L518 514M580 514L581 515L580 514M409 515L410 516L409 515M435 515L436 516L435 515M454 515L455 516L454 515M479 515L480 516L479 515M554 515L555 516L554 515M623 515L624 516L623 515M490 516L491 517L490 516M579 516L580 517L579 516M596 516L597 517L596 516M410 517L411 518L410 517M455 517L456 518L455 517M480 517L481 518L480 517M622 517L623 518L622 517M437 518L438 519L437 518M595 518L596 519L595 518M411 519L412 520L411 519M488 519L489 520L488 519M515 519L516 520L515 519M574 519L573 523L568 522L569 526C567.365 525.455 567.545 525.635 567 524C563.168 525.228 561.97 528.174 559 530C559.927 531.729 560.608 532.594 562 534C560.083 534.174 557.868 534.628 555.953 534.308C548.383 533.043 552.737 524.427 554 520L551 520C543.91 535.169 533.988 549.505 525.576 564C523.54 567.507 519.708 577.825 515 576C512.037 576.561 509.416 576.224 509 573C506.834 574.164 504.966 575.514 503 577L503 575C499.828 575.175 494.967 574.432 492.85 577.434C491.108 579.904 492.94 582.757 494.158 585C497.648 591.424 501.525 597.65 505.15 604C507.719 608.499 510.676 616.113 517 615.663C524.338 615.14 528.591 603.487 531.719 598C542.447 579.183 553.656 560.574 564.8 542C567.783 537.029 570.739 532.044 573.596 527C575.296 523.997 577.028 521.379 574 519M577 519L578 520L577 519M621 519L622 520L621 519M438 520L439 521L438 520M482 520L483 521L482 520M514 521L515 522L514 521M593 521L594 522L593 521M413 522L414 523L413 522M458 522L459 523L458 522M619 522L620 523L619 522M440 523L441 524L440 523M592 523L593 524L592 523M414 524L415 525L414 524M459 524L460 525L459 524M512 524L513 525L512 524M618 524L619 525L618 524M441 525L442 526L441 525M511 526L512 527L511 526M416 527L417 528L416 527M589 528L590 529L589 528M417 529L418 530L417 529M462 529L463 530L462 529M615 529L616 530L615 529M442 530C442 535.884 436.201 540.8 433 540C433.077 542.913 432.827 544.428 432 547L437 546C434.948 547.965 433.806 548.574 431 549C438.333 567.766 449.432 584.672 459.801 602C471.706 621.895 483.065 642.119 495 662C500.171 670.613 505.273 679.287 510.273 688C511.865 690.773 514.681 696.232 518.722 694.088C521.522 692.602 522.85 688.609 524.287 686C527.817 679.592 531.736 673.335 535.412 667C549.176 643.279 563.077 619.626 577.005 596C581.33 588.663 585.637 581.314 590 574C592.001 570.646 595.119 566.46 590 565L591 568C589.522 567.014 589.797 567 588 567C588.986 565.521 589 565.797 589 564L585 564C585.338 562.328 585.537 562.69 584 562C584.027 559.384 583.568 559.446 581 560L582 557L577 556L578 552L575 552C563.571 576.452 547.615 599.801 533.799 623C528.007 632.727 521.375 642.546 517 653C504.391 635.643 494.853 615.496 483.989 597C471.057 574.984 455.807 553.12 445 530L442 530M588 530L589 531L588 530M463 531L464 532L463 531M508 531L509 532L508 531M419 532L420 533L419 532M586 533L587 534L586 533M420 534L421 535L420 534M465 534L466 535L465 534M506 534L507 535L506 534M612 534L613 535L612 534M585 535L586 536L585 535M421 536L422 537L421 536M466 536L467 537L466 536M505 536L506 537L505 536M611 536L612 537L611 536M583 538L584 539L583 538M423 539L424 540L423 539M468 539L469 540L468 539M503 539L504 540L503 539M609 539L610 540L609 539M582 540L583 541L582 540M424 541L425 542L424 541M469 541L470 542L469 541M502 541L503 542L502 541M608 541L609 542L608 541M581 542L582 543L581 542M426 544L427 545L426 544M500 544L501 545L500 544M579 545L580 546L579 545M427 546L428 547L427 546M472 546L473 547L472 546M605 546L606 547L605 546M498.333 547.667C498.278 547.722 498.222 548.778 498.667 548.333C498.722 548.278 498.778 547.222 498.333 547.667M578 547L579 548L578 547M473 548L474 549L473 548M604 548L605 549L604 548M429 549L430 550L429 549M474 550L475 551L474 550M499 550L500 551L499 550M576 550L577 551L576 550M430 551L431 552L430 551M431 553L432 554L431 553M476 553L477 554L476 553M501 553L502 554L501 553M601 553L602 554L601 553M477 555L478 556L477 555M502 555L503 556L502 555M503 557L504 558L503 557M598 558L599 559L598 558M480 560L481 561L480 560M597 560L598 561L597 560M481 562L482 563L481 562M506 562L507 563L506 562M595 563L596 564L595 563M507 564L508 565L507 564M594 565L595 566L594 565M484 567L485 568L484 567M485 569L486 570L485 569M510 569L511 570L510 569M511 571L512 572L511 571M487 572L488 573L487 572M512 573L513 574L512 573M488 574L489 575L488 574z"/>
</svg>
