<?xml version="1.0" standalone="yes"?>
<svg xmlns="http://www.w3.org/2000/svg" width="1024" height="1024">
<path style="fill:#010e1a; stroke:none;" d="M0 0L0 1024L1024 1024L1024 0L0 0z"/>
<path style="fill:#0cb8f6; stroke:none;" d="M647.015 252.786C642.602 254.234 640.219 259.312 638 263C633.408 270.632 628.983 278.361 624.4 286C622.174 289.71 618.856 293.775 617.743 298C616.346 303.304 622.433 309.854 627.96 308.292C632.504 307.007 634.868 300.709 637 297C641.402 289.342 645.837 281.713 650.14 274C652.221 270.268 655.263 266.162 656.332 262C657.677 256.763 652.471 250.996 647.015 252.786M347 263C349.22 275.303 359.824 288.195 365.999 299C379.334 322.334 392.376 345.822 405.989 369C431.385 412.24 456.846 455.536 481.85 499C488.066 509.805 494.787 520.313 501.2 531C502.803 533.671 505.369 540.364 509.145 540.364C514.258 540.364 518.398 529.671 520.6 526C529.983 510.362 539.219 494.636 548.6 479C571.042 441.596 592.681 403.724 614.576 366C620.382 355.995 626.047 345.921 632 336C634.083 332.529 638.46 327.411 638.292 323.148C638.114 318.629 629.927 320 627 320C617.956 320 609.054 319 600 319C596.636 319 592.284 318.309 589.104 319.603C583.367 321.94 579.796 331.968 576.799 337C566.927 353.578 557.263 370.308 547.576 387C540.978 398.368 534.5 409.825 527.576 421C521.749 430.404 515.265 439.758 511 450C506.816 445.416 503.384 440.326 500.204 435C498.768 432.593 496.909 429.95 497.479 427C498.386 422.309 502.765 417.081 505.201 413C510.744 403.712 516.194 394.382 521.573 385C535 361.579 548.508 338.154 562.4 315C568.148 305.42 572.82 293.775 579.904 285.148C584.884 279.084 594.33 283.442 600.957 281.682C607.135 280.041 611.707 268.65 613 263C603.947 263 595.025 263.999 586 264C581.846 264 575.867 262.943 572.105 265.028C569.124 266.68 567.643 270.193 565.989 273C562.635 278.691 559.199 284.335 555.8 290C546.072 306.215 537.05 322.872 527.189 339C521.755 347.888 513.346 357.772 511 368C503.622 361.721 498.93 350.373 494.15 342C484.074 324.348 474.127 306.621 464 289C459.826 281.737 455.252 269.836 448.621 264.603C446.191 262.686 442.91 263.006 440 263L421 263L347 263z"/>
<path style="fill:#010e1a; stroke:none;" d="M379 282C381.759 292.086 387.596 300.989 392.719 310C394.51 313.15 396.407 318.558 400.213 319.682C409.25 322.352 422.77 314.64 430.787 320.603C436.018 324.494 439.237 333.532 442.681 339C452.197 354.108 460.935 369.733 470.203 385C473.464 390.373 476.841 395.682 480.193 400.999C481.384 402.889 482.779 405.89 485.145 406.539C488.627 407.493 490.999 402.302 492.399 399.999C494.633 396.325 498.681 391.525 498.512 387C498.368 383.158 495.296 379.188 493.396 376C480.218 353.891 466.86 331.741 454.78 309C451.319 302.485 447.416 296.308 443.601 290C442.061 287.453 440.553 283.89 437.671 282.603C432.98 280.509 425.068 282 420 282L379 282M409 338C413.618 350.686 422.869 362.296 429.579 374C445.115 401.1 461.282 427.848 476.719 455C483.752 467.369 490.908 479.661 498 492C501.526 498.135 504.492 505.436 510 510C518.941 496.488 526.378 482.04 534.427 468C546.313 447.268 558.543 426.73 570.427 406C583.508 383.184 598.872 360.835 610 337C606.047 337.734 599.763 336.885 596.39 339.028C593.5 340.863 591.917 345.174 590.189 348C585.931 354.964 581.801 361.999 577.6 369C563.234 392.944 549.166 417.056 534.8 441C529.017 450.639 523.421 460.385 517.6 470C515.846 472.896 513.188 478.592 509.011 478.079C505.302 477.623 502.944 472.834 501.284 470C496.578 461.968 491.883 453.897 486.95 446C470.564 419.772 455.932 392.5 440 366C436.368 359.958 432.382 354.113 428.872 348C427.16 345.019 425.752 340.896 422.671 339.028C419.116 336.872 413.01 338 409 338z"/>
<path style="fill:#0cb8f6; stroke:none;" d="M341.667 585.333C341.222 585.778 342.278 585.722 342.333 585.667C342.778 585.222 341.722 585.278 341.667 585.333z"/>
<path style="fill:#f5f8f9; stroke:none;" d="M343 585.428C329.17 587.409 317.251 592.662 308.529 604C294.066 622.801 295.674 655.815 312.3 672.711C325.247 685.868 344.544 688.506 362 685.866C398.402 680.36 412.281 635.085 393.452 606C382.788 589.527 361.919 582.718 343 585.428M823 632L780 632L780 648L803 648C803 651.622 803.831 656.551 801.972 659.816C799.374 664.38 792.794 666.629 788 667.764C772.554 671.421 755.979 664.788 750.75 649C746.646 636.61 748.518 620.511 758.093 611.105C770.827 598.596 794.596 600.812 803 617C809.16 616.09 815.498 613.899 821 611C812.708 582.27 771.11 578.744 749 592.468C732.482 602.72 726.38 623.506 728.17 642C729.328 653.968 733.877 666.518 743.039 674.699C762.329 691.923 804.13 692.982 820.682 670.999C823.572 667.161 823 662.545 823 658L823 632z"/>
<path style="fill:#0cb8f6; stroke:none;" d="M336 586L337 587L336 586M364 586L365 587L364 586M763 586L764 587L763 586M792 586L793 587L792 586z"/>
<path style="fill:#f5f8f9; stroke:none;" d="M192 587C200.179 611.176 209.57 635.277 219 659C221.37 664.962 223.515 671.009 225.808 677C226.677 679.272 227.402 682.495 229.51 683.972C231.553 685.404 234.649 684.995 237 685L254 685C255.874 677.094 259.504 669.607 262.319 662C271.464 637.287 283.065 612.407 290 587C284.546 587 273.086 584.815 268.51 588.028C263.916 591.253 262.434 602.88 260.656 608C254.274 626.385 246.39 645.024 242 664C238.382 657.134 236.495 649.333 233.997 642C230.246 630.992 226.358 620.034 222.667 609C221.094 604.298 219.259 599.695 217.667 595C216.904 592.747 216.318 589.543 214.298 588.028C212.357 586.572 209.268 587.005 207 587L192 587z"/>
<path style="fill:#0cb8f6; stroke:none;" d="M332 587L333 588L332 587M368 587L369 588L368 587z"/>
<path style="fill:#f5f8f9; stroke:none;" d="M424 587L424 685L444 685L444 650C448.672 650 455.689 648.705 459.896 651.028C462.876 652.674 464.567 656.23 466.319 659C470.885 666.223 475.503 678.179 482.329 683.397C487.34 687.227 498.946 685 505 685C499.731 671.079 488.193 659.907 481 647C506.432 644.395 509.56 608.226 491.999 594.39C482.814 587.154 471.103 587 460 587L424 587z"/>
<path style="fill:#0cb8f6; stroke:none;" d="M474 587L475 588L474 587z"/>
<path style="fill:#f5f8f9; stroke:none;" d="M514 587C519.791 602.299 531.371 616.953 539.8 631C542.645 635.741 546.746 640.671 548.351 646C549.663 650.356 549 655.502 549 660L549 685L569 685L569 660C569 655.818 568.385 651.03 569.699 647C571.786 640.595 576.747 634.768 580.139 629C588.371 614.999 597.368 601.34 605 587C598.775 587 588.968 585.123 583.21 587.603C579.414 589.238 577.549 594.624 575.694 598C570.445 607.559 564.213 616.935 560 627C553.24 618.773 548.669 608.262 543.424 599C541.452 595.516 539.499 589.391 535.621 587.603C530.087 585.053 520.05 587 514 587M622 587L622 685L642 685L642 619C653.329 633.739 663.386 649.709 673.975 665C677.846 670.589 682.337 680.488 688.3 683.972C693.146 686.803 702.518 685 708 685L708 587L688 587L688 652C676.418 637.396 666.1 621.446 655.67 606C652.26 600.95 647.382 590.129 641.674 587.603C636.481 585.305 627.629 587 622 587z"/>
<path style="fill:#0cb8f6; stroke:none;" d="M759 587L760 588L759 587M215 588L216 589L215 588M329 588L330 589L329 588M371 588L372 589L371 588M537 588L538 589L537 588M603 589L604 590L603 589M754 589L755 590L754 589M801 589L802 590L801 589M485 590L486 591L485 590M538 590L539 591L538 590M752 590L753 591L752 590M803 590L804 591L803 590M216 591L217 592L216 591M288 591L289 592L288 591M487 591L488 592L487 591M579 591L580 592L579 591M379 592L380 593L379 592M194 593L195 594L194 593M517 593L518 594L517 593M808 593L809 594L808 593M217 594L218 595L217 594M287 594L288 595L287 594M382 594L383 595L382 594M600 594L601 595L600 594M647 594L648 595L647 594M264 596L265 597L264 596M494 596L495 597L494 596M218 597L219 598L218 597M314 597L315 598L314 597M542 597L543 598L542 597M649 597L650 598L649 597M196 598L197 599L196 598M313 598L314 599L313 598M520 598L521 599L520 598M263 599L264 600L263 599M285 599L286 600L285 599M312 599L313 600L312 599M543 599L544 600L543 599M219 600L220 601L219 600M311 600L312 601L311 600M574 600L575 601L574 600M197 601L198 602L197 601M816 601L817 602L816 601M262 602L263 603L262 602M344.667 603.333C344.222 603.778 345.278 603.722 345.333 603.667C345.778 603.222 344.722 603.278 344.667 603.333z"/>
<path style="fill:#010e1a; stroke:none;" d="M346 603.439C319.687 607.539 310.124 644.045 330.04 661.787C337.708 668.617 348.339 669.484 358 667.854C380.736 664.018 387.06 633.464 375.867 616.001C369.697 606.374 357.136 601.704 346 603.439z"/>
<path style="fill:#0cb8f6; stroke:none;" d="M354 603C355.248 603.685 355.548 603.749 357 604C355.752 603.315 355.452 603.251 354 603M391 603L392 604L391 603M523 603L524 604L523 603M737 603L738 604L737 603M783.667 603.333C783.222 603.778 784.278 603.722 784.333 603.667C784.778 603.222 783.722 603.278 783.667 603.333M340 604L341 605L340 604M360 604L361 605L360 604z"/>
<path style="fill:#010e1a; stroke:none;" d="M444 604L444 634C453.597 634 467.457 636.404 475.957 630.992C484.557 625.515 484.011 611.149 474.995 606.453C466.245 601.895 453.535 604 444 604z"/>
<path style="fill:#0cb8f6; stroke:none;" d="M546 604L547 605L546 604M594 604L595 605L594 604M788 604L789 605L788 604M818 604L819 605L818 604M261 605L262 606L261 605M337 605L338 606L337 605M791 605L792 606L791 605M199 606L200 607L199 606M365 606L366 607L365 606M475 606L476 607L475 606M547 606L548 607L547 606M735 606L736 607L735 606M793 606L794 607L793 606M819 606L820 607L819 606M282 607L283 608L282 607M333 607L334 608L333 607M501 607L502 608L501 607M570 607L571 608L570 607M656 607L657 608L656 607M260 608L261 609L260 608M368 608L369 609L368 608M526 608L527 609L526 608M760 608L761 609L760 608M796 608L797 609L796 608M820 608L821 609L820 608M200 609L201 610L200 609M330 609L331 610L330 609M395 609L396 610L395 609M569 609L570 610L569 609M591 609L592 610L591 609M281 610L282 611L281 610M329 610L330 611L329 610M658 610L659 611L658 610M259 611L260 612L259 611M328 611L329 612L328 611M396 611L397 612L396 611M502 611L503 612L502 611M820 611L821 612L820 611M327 612L328 613L327 612M303 613L304 614L303 613M481 613L482 614L481 613M529 613L530 614L529 613M551 613L552 614L551 613M755 613L756 614L755 613M801 613L802 614L801 613M731 614L732 615L731 614M279 615L280 616L279 615M375 615L376 616L375 615M552 615L553 616L552 615M324 616L325 617L324 616M398 616L399 617L398 616M203 617L204 618L203 617M730 617L731 618L730 617M323 618L324 619L323 618M532 618L533 619L532 618M564 618L565 619L564 618M399 619L400 620L399 619M642 619C643.403 640.782 642 663.155 642 685C643.981 680.28 643 674.08 643 669L643 636C643 630.933 644.528 623.372 642 619M322 620L323 621L322 620z"/>
<path style="fill:#010e1a; stroke:none;" d="M642 620L643 621L642 620z"/>
<path style="fill:#0cb8f6; stroke:none;" d="M665 620L666 621L665 620M751 620L752 621L751 620M378 621L379 622L378 621M729 621L730 622L729 621M300 622L301 623L300 622M556 622L557 623L556 622M227 623L228 624L227 623M276 623L277 624L276 623M321 623L322 624L321 623M400 623L401 624L400 623M535 623L536 624L535 623M645 623L646 624L645 623M667 623L668 624L667 623M750 623L751 624L750 623M481 624L482 625L481 624M557 624L558 625L557 624M582 624L583 625L582 624M206 625L207 626L206 625M560 625L561 626L560 625M228 626L229 627L228 626M480 626L481 627L480 626M502 626L503 627L502 626M647 626L648 627L647 626M299.333 627.667C299.278 627.722 299.222 628.778 299.667 628.333C299.722 628.278 299.778 627.222 299.333 627.667M320 627L321 628L320 627M749 627L750 628L749 627M380 628L381 629L380 628M538 628L539 629L538 628M229 629L230 630L229 629M401.333 629.667C401.278 629.722 401.222 630.778 401.667 630.333C401.722 630.278 401.778 629.222 401.333 629.667M649 629L650 630L649 629M273 631L274 632L273 631M230 632L231 633L230 632M209 633L210 634L209 633M468 633L469 634L468 633M541 633L542 634L541 633M674 633L675 634L674 633M499 634L500 635L499 634M576 634L577 635L576 634M231 635L232 636L231 635M654 636L655 637L654 636M676 636L677 637L676 636M250 637L251 638L250 637M497 637L498 638L497 637M270 639L271 640L270 639M401 639L401 643C401.71 641.24 401.71 640.76 401 639M573 639L574 640L573 639M656 639L657 640L656 639M212 641L213 642L212 641M546 641L547 642L546 641M658 642L659 643L658 642M248 643L249 644L248 643M380 643L381 644L380 643M681 643L682 644L681 643M320 644L321 645L320 644M570 644L571 645L570 644M728 644L729 645L728 644M749 644L750 645L749 644M299 645L300 646L299 645M247 646L248 647L247 646M569 646L569 685C570.441 681.566 570 677.702 570 674C570 665.729 572.206 653.639 569 646M683 646L684 647L683 646M267 647L268 648L267 647M481 647L482 648L481 647M400 648L401 649L400 648M750 648L751 649L750 648M215 649L216 650L215 649M246 649L247 650L246 649M266 650L267 651L266 650M300 650L301 651L300 650M378 650L379 651L378 650M444 650C448.974 652.087 455.638 651 461 651C456.026 648.913 449.362 650 444 650M729 650L730 651L729 650M751 651L752 652L751 651M245 652L246 653L245 652M399 652L400 653L399 652M462 652L463 653L462 652M665 652L666 653L665 652M301 654L302 655L301 654M485 654L486 655L485 654M244 655L245 656L244 655M398 655L399 656L398 655M753 655L754 656L753 655M325 656L326 657L325 656M218 657L219 658L218 657M465 657L466 658L465 657M239 658L240 659L239 658M243 658L244 659L243 658M263 658L264 659L263 658M303 659L304 660L303 659M732 659L733 660L732 659M396 660L397 661L396 660M467 660L468 661L467 660M240 661L241 662L240 661M242 661L243 662L242 661M304 661L305 662L304 661M733 661L734 662L733 661M801 661L802 662L801 661M220 662L221 663L220 662M395 662L396 663L395 662M672 662L673 663L672 662M368 663L369 664L368 663M734 663L735 664L734 663M760 663L761 664L760 663M492 664L493 665L492 664M221 665L222 666L221 665M470 665L471 666L470 665M795 665L796 666L795 665M260 666L261 667L260 666M307 666L308 667L307 666M769 667L770 668L769 667M789 667L790 668L789 667M345.667 668.333C345.222 668.778 346.278 668.722 346.333 668.667C346.778 668.222 345.722 668.278 345.667 668.333M353.667 668.333C353.222 668.778 354.278 668.722 354.333 668.667C354.778 668.222 353.722 668.278 353.667 668.333M391 668L392 669L391 668M472 668L473 669L472 668M775 668C778.163 669.327 781.586 669 785 669C781.837 667.673 778.414 668 775 668M738 669L739 670L738 669M223 670L224 671L223 670M310 670L311 671L310 670M496 670L497 671L496 670M258 671L259 672L258 671M679 672L680 673L679 672M819 672L820 673L819 672M475 673L476 674L475 673M818 673L819 674L818 673M257 674L258 675L257 674M314 674L315 675L314 674M817 674L818 675L817 674M315 675L316 676L315 675M681 675L682 676L681 675M816 675L817 676L816 675M383 676L384 677L383 676M477 676L478 677L477 676M745 676L746 677L745 676M226 678L227 679L226 678M319 678L320 679L319 678M501 678L502 679L501 678M812 678L813 679L812 678M255 679L256 680L255 679M377 680L378 681L377 680M751 680L752 681L751 680M375 681L376 682L375 681M480 681L481 682L480 681M753 681L754 682L753 681M254 682L255 683L254 682M373 682L374 683L373 682M686 682L687 683L686 682M755 682L756 683L755 682M329 683L330 684L329 683M802 683L803 684L802 683M332 684L333 685L332 684M482 684L483 685L482 684M505 684C498.129 686.031 490.137 685 483 685C487.215 687.428 495.067 686.011 500 686C502.005 685.995 506.063 686.574 505 684M799 684L800 685L799 684M229 685C235.687 687.806 245.767 686 253 686C246.313 683.194 236.233 685 229 685M336 685L337 686L336 685M364 685L365 686L364 685M424 685C429.715 687.398 437.831 686 444 686C438.285 683.602 430.169 685 424 685M549 685C554.715 687.398 562.831 686 569 686C563.285 683.602 555.169 685 549 685M622 685C627.715 687.398 635.831 686 642 686C636.285 683.602 628.169 685 622 685M688 685C693.715 687.398 701.831 686 708 686C702.285 683.602 694.169 685 688 685M764 685L765 686L764 685M795 685L796 686L795 685M340 686C341.248 686.685 341.548 686.749 343 687C341.752 686.315 341.452 686.251 340 686M357 686C358.248 686.685 358.548 686.749 360 687C358.752 686.315 358.452 686.251 357 686M769.667 686.333C769.222 686.778 770.278 686.722 770.333 686.667C770.778 686.222 769.722 686.278 769.667 686.333M220 725C220 728.284 212.033 734.207 216.167 738.833C217.145 739.928 218.963 740.01 220 741C222.709 740.352 225.216 740.058 228 740L226 741L231 743L230 744C233.533 744 231.785 748 229 748L230 750L227 749C227 750.648 227.103 751.203 225 751C221.813 750.692 220.341 746.948 217 747C214.994 747.031 213.656 749.215 215.167 750.833C216.527 752.291 220.179 751.904 222 752L220 753C223.622 754.503 227.196 753.281 231 753C231 750.615 231.732 750.664 234 751C235.97 745.585 236.864 738.325 229 739C228.453 735.715 215.84 736.567 221.241 730.472C221.919 729.706 223.082 729.432 223.986 729.079C225.228 728.594 226.718 728.344 228 728C228 729.797 228.014 729.521 229 731L233 731C232.865 727.808 232.192 727.135 229 727L229 725C225.825 725.524 223.175 725.524 220 725z"/>
<path style="fill:#f5f8f9; stroke:none;" d="M222 725C223.769 725.779 225.036 725.912 227 726C225.231 725.221 223.964 725.088 222 725z"/>
<path style="fill:#0cb8f6; stroke:none;" d="M249 725C254.222 727.191 261.368 726 267 726C261.778 723.809 254.632 725 249 725M288 725L289 726L288 725z"/>
<path style="fill:#f5f8f9; stroke:none;" d="M287 726C293.437 727.986 298.067 725.758 303 732C297.38 729.352 292.296 725.592 287 731C294.484 728.278 297.79 732.462 305 733C301.818 724.979 294.65 724.179 287 726z"/>
<path style="fill:#0cb8f6; stroke:none;" d="M318 725L318 745C320.295 739.531 319 731.901 319 726L323 726C321.231 725.221 319.964 725.088 318 725M336 727L341 726C338.7 725.084 337.623 725.121 336 727M356 725C359.959 726.661 364.737 726 369 726C365.041 724.339 360.263 725 356 725M390 725C395.759 727.417 402.83 724.083 408 728C409.073 725.154 406.487 725.073 403.995 725.005C399.338 724.877 394.66 725 390 725M443 725L443 752C446.008 744.831 444 733.761 444 726L448 726C446.231 725.221 444.964 725.088 443 725M462 725L462 753C465.109 745.591 463 734.025 463 726L468 726L464 727L464 752L466 752C466 745.592 465.826 739.322 467 733C468.493 733.999 468.266 733.968 470 734C469.923 736.354 470.209 737.768 471 740C475.48 741.038 476.389 747.144 478 751L484 752L484 727L482 727L482 745C478.37 741.992 476.202 738.137 474 734L472 735C470.381 728.839 468.841 725.224 462 725M481 725C482.648 725.924 484.175 726.449 486 727C484.46 725.197 483.402 725.168 481 725M498 725L498 729C498.685 727.752 498.749 727.452 499 726L520 726C513.798 723.397 504.702 725 498 725M533 725L533 753C536.109 745.591 534 734.024 534 726L552 726C546.531 723.705 538.901 725 533 725M566 725C567.506 725.683 568.315 725.826 570 726C568.494 725.317 567.685 725.174 566 725M597 725C598.506 725.683 599.315 725.826 601 726L601 749C598.969 742.129 600 734.137 600 727L598 727L598 752L614 752C610.303 750.448 605.983 751 602 751C605.96 749.829 609.887 750 614 750C610.302 748.448 605.983 749 602 749L602 725L597 725M628 725C629.769 725.779 631.036 725.912 633 726C631.231 725.221 629.964 725.088 628 725M655 725C655.65 726.3 655.147 726 657 726C653.075 727.049 651.171 727.993 650 732C645.241 732.661 648.539 743.967 648 748C650.848 748.37 650.796 750.546 653.111 752.083C656.285 754.19 660.373 754 664 754C663.35 752.7 663.853 753 662 753C664.018 752.66 664.968 752.677 667 753C667 750.466 668.872 750.325 670 748C671.206 745.514 671 742.673 671 740L660 740L660 743C663.169 742.992 665.959 742.9 669 742L669 746C663.315 747.053 661.632 751.161 655 750C654.77 747.402 654.598 747.23 652 747C650.629 742.887 649.123 739.379 651 735L653 734C654.198 732.203 654.232 729.384 657 728C658.858 727.071 662.62 728.172 664 729L663 730L672 733C670.242 729.426 669.225 727.184 665 727L665 725C661.516 725.575 658.492 725.412 655 725z"/>
<path style="fill:#f5f8f9; stroke:none;" d="M658 725C659.769 725.779 661.036 725.912 663 726C661.231 725.221 659.964 725.088 658 725z"/>
<path style="fill:#0cb8f6; stroke:none;" d="M686 725C691.222 727.191 698.368 726 704 726C698.778 723.809 691.632 725 686 725M718 725L718 753C721.109 745.591 719 734.024 719 726L724 726C721.948 725.126 720.253 725.047 718 725M736 725L736 744C738.191 738.778 737 731.632 737 726L741 726C739.231 725.221 737.964 725.088 736 725z"/>
<path style="fill:#f5f8f9; stroke:none;" d="M754 741C755.359 738.463 755.722 735.53 757.14 733.015C760.902 726.343 767.314 726.173 774 727C763.368 719.737 754.218 730.816 754 741z"/>
<path style="fill:#0cb8f6; stroke:none;" d="M772 725L773 726L772 725M793 725C798.222 727.191 805.368 726 811 726C805.778 723.809 798.632 725 793 725z"/>
<path style="fill:#f5f8f9; stroke:none;" d="M215 737C216.813 732.844 217.14 729.941 221 727C215.1 725.796 215.015 732.772 215 737M229.667 726.333C229.222 726.778 230.278 726.722 230.333 726.667C230.778 726.222 229.722 726.278 229.667 726.333M249 726L249 753L267 753L267 749C262.345 750.108 257.761 750 253 750C256.959 751.661 261.737 751 266 751C260.854 752.521 255.34 752 250 752L250 727L266 727C262.594 728.007 255.331 726.707 253.028 729.603C251.532 731.484 252.008 734.768 252 737C253.098 734.387 252.993 731.835 253 729L267 729L267 726L249 726z"/>
<path style="fill:#0cb8f6; stroke:none;" d="M283 732L281 731L280 745C282.772 745 285 749.3 285 752C287.452 751.591 287.726 751.181 290 753L289 754L297 754C296.35 752.7 296.853 753 295 753C297.2 752.225 298.669 751.973 301 752C301.881 749.979 302.496 748.146 303 746L298 747L297 748L298 750C296.386 750.269 293.704 751.852 292 751L291 749C288.829 747.552 285.918 745.755 285 743C284.207 740.62 284.424 735.441 285 734L286 735L285 732C287.635 731.391 289.219 728.886 292.019 728.361C296.078 727.6 299.348 730.928 303 732C299.25 724.832 285.589 723.146 283 732z"/>
<path style="fill:#f5f8f9; stroke:none;" d="M319 726L319 747C321.398 741.285 320 733.169 320 727L322 727C322 733.839 321.053 741.413 323 748C324.559 741.51 323 732.812 323 726L319 726M337 726L337 745C339.191 739.778 338 732.632 338 727L340 727L340 745C342.295 739.531 341 731.901 341 726L337 726M356 726L356 753L360 753L360 742C358.673 745.163 359 748.586 359 752L357 752L357 727C365.657 727 374.401 726.065 375 737C380.109 724.677 363.167 726 356 726M390 726C394.974 728.087 401.638 727 407 727C403.04 728.171 399.113 728 395 728C399.217 729.769 404.459 729 409 729C405.343 723.929 395.706 726 390 726M444 726C444 734.83 445.054 744.374 443 753L448 753L448 726L444 726M463 726L463 753L467 753L467 735C464.913 739.974 466 746.638 466 752L464 752L464 727L468 727C466.231 726.221 464.964 726.088 463 726M481 726L481 745C483.191 739.778 482 732.632 482 727L484 727L484 752L480 752C481.769 752.779 483.036 752.912 485 753L485 726L481 726M499 726L499 729L507 729C504.668 728.015 502.543 728.019 500 728C506.014 726.222 512.757 727 519 727C516.709 727.686 512.603 727.607 511.028 729.603C509.7 731.285 510.015 734.005 510.001 736L510 752L508 752L508 730C505.296 736.445 507 746.032 507 753L511 753L511 729L520 729L520 726L499 726M534 726L534 753L552 753C547.026 750.913 540.362 752 535 752L535 727L550 727C546.04 728.171 542.113 728 538 728C542.217 729.769 547.459 729 552 729L552 726L534 726M566 726L566 753L584 753C579.026 750.913 572.362 752 567 752L567 727L569 727L569 749C571.704 742.555 570 732.968 570 726L566 726M597 726L597 753L615 753L615 749C610.662 750.033 606.438 750 602 750C605.698 751.552 610.017 751 614 751C608.854 752.521 603.34 752 598 752L598 727L600 727L600 749C602.704 742.555 601 732.968 601 726L597 726M628 726C629.769 726.779 631.036 726.912 633 727C631.231 726.221 629.964 726.088 628 726M654 726C655.248 726.685 655.548 726.749 657 727C655.752 726.315 655.452 726.251 654 726M665.667 726.333C665.222 726.778 666.278 726.722 666.333 726.667C666.778 726.222 665.722 726.278 665.667 726.333M686 726L686 753L704 753L704 749C699.345 750.108 694.761 750 690 750C693.959 751.661 698.737 751 703 751C697.854 752.521 692.34 752 687 752L687 727L703 727C699.594 728.007 692.331 726.707 690.028 729.603C688.532 731.484 689.008 734.768 689 737C690.098 734.387 689.993 731.836 690 729L704 729L704 726L686 726M719 726L719 753L723 753C721.449 746.487 722 739.659 722 733C719.705 738.469 721 746.099 721 752C718.718 744.279 720 735.025 720 727C721.952 727.511 722.457 727.733 724 729C724.488 726.041 721.484 726.118 719 726M737 726L737 745C739.191 739.778 738 732.632 738 727L740 727L740 751C742.907 744.072 741 733.497 741 726L737 726z"/>
<path style="fill:#0cb8f6; stroke:none;" d="M754 744C755.3 743.35 755 743.853 755 742C755.34 744.018 755.323 744.968 755 747C757.385 747 757.336 747.732 757 750L762 752L761 753C765.521 751.924 769.479 751.924 774 753C774.607 750.486 775.966 748.386 777 746C774.363 746.939 773.382 747.58 772 750C769.623 749.428 767.442 749.109 765 749C766.769 749.779 768.036 749.912 770 750C759.351 752.433 752.538 734.377 763 731L762 729L765 730C765 724.183 775.422 731.729 778 732L775 726C771.694 726.37 768.254 725.778 765 726.537C756.651 728.484 754.995 736.607 754 744z"/>
<path style="fill:#f5f8f9; stroke:none;" d="M793 726L793 753L811 753L811 750L797 750C800.959 751.661 805.737 751 810 751C804.854 752.521 799.34 752 794 752L794 727L810 727C806.512 728.031 800.433 726.786 797.603 729.028C795.23 730.908 795.571 736.045 798.318 737.397C801.681 739.051 807.326 738 811 738C806.784 736.231 801.541 737 797 737L797 729L811 729L811 726L793 726M231 727L232 728L231 727z"/>
<path style="fill:#0cb8f6; stroke:none;" d="M250 727L250 752L266 752C262.041 750.339 257.263 751 253 751C257.261 749.741 261.577 750 266 750C261.783 748.231 256.541 749 252 749L252 741L267 741C265.636 739.181 265.508 739.969 266 738C262.505 738 257.374 738.866 254.318 736.821C251.244 734.764 251.845 730.046 255.148 728.603C258.237 727.254 262.696 728 266 728C261.276 726.018 255.09 727 250 727M320 727C320 732.329 320.124 737.674 319.926 743C319.816 745.957 319.418 749.318 322.243 751.227C324.807 752.96 329.061 752.024 331.998 752.128C334.723 752.225 336.486 752.012 339 751C339.199 748.894 339.456 748.457 341 747C339.767 740.358 340 733.732 340 727L338 727C338 731.954 339.614 740.307 336.889 744.611C335.123 747.4 326.992 754.769 326 748L325 747L323 748C321.377 741.182 322 733.971 322 727L320 727M357 727L357 752L359 752L359 742C362.027 742.877 363.973 742.877 367 742C367.941 744.497 368.368 747.586 371 748L370 751C371.801 751.562 373.122 751.824 375 752L375 748C372.649 748 373.065 747.348 373 745L370 745L372 740C373.915 741.277 373.085 741.277 375 740L374 738L376 738C375.324 735.266 375.157 731.647 373.258 729.434C369.844 725.454 361.677 727 357 727M373 727L374 728L373 727M390 727L390 752L407 752C403.303 750.448 398.983 751 395 751C399.558 749.653 404.27 750 409 750C404.783 748.231 399.541 749 395 749L395 741L407 741L407 738L394 738C394.99 734.65 394.998 731.486 395 728L407 728C402.026 725.913 395.362 727 390 727M445 727L445 752L447 752L447 727L445 727M500 727C501.961 727.859 504.714 727.997 506.258 729.603C510.337 733.843 508 746.478 508 752L510 752L510.001 737C510.017 734.578 509.735 731.48 511.603 729.603C513.481 727.718 516.575 728.029 519 728C513.531 725.705 505.901 727 500 727M535 727L535 752C539.503 752 550.879 754.23 552 749C550.805 749.598 551.023 749.466 550 751C547.282 747.89 541.896 749 538 749L538 741L550 741L550 738L538 738L538 728L550 728C545.529 726.124 539.817 727 535 727M551 727L552 728L551 727M567 727L567 752L584 752L584 749L569 749L569 727L567 727M628 727L628 752L633 752L633 727L628 727M687 727L687 752L703 752C699.041 750.339 694.263 751 690 751C694.26 749.741 698.577 750 703 750C698.783 748.231 693.541 749 689 749L689 741L703 741L703 738C699.505 738 694.374 738.866 691.318 736.821C688.244 734.764 688.845 730.046 692.148 728.603C695.237 727.254 699.696 728 703 728C698.276 726.018 692.09 727 687 727M720 727L720 752C722.295 746.531 721 738.901 721 733C722.778 739.014 722 745.757 722 752C724.403 746.274 722.54 739.133 724 733L726 739C729.66 739.47 729.686 743.903 731 747C734.986 748.253 736.3 751.637 741 752C739.089 743.974 740 735.212 740 727L738 727C738 733.346 738.478 739.792 737 746L734 741C729.368 740.405 731.757 734 727 734L726 728L720 727M794 727L794 752L810 752C806.041 750.339 801.263 751 797 751C801.558 749.653 806.27 750 811 750C806.529 748.124 800.817 749 796 749L796 741L811 741L811 738C807.363 738 801.479 739.087 798.318 736.972C795.626 735.172 795.626 730.829 798.318 729.028C801.284 727.043 806.596 728 810 728C805.276 726.018 799.09 727 794 727z"/>
<path style="fill:#f5f8f9; stroke:none;" d="M226.667 728.333C226.222 728.778 227.278 728.722 227.333 728.667C227.778 728.222 226.722 728.278 226.667 728.333M359 728L359 739C360.327 735.837 360 732.414 360 729L369 729C365.837 727.673 362.414 728 359 728z"/>
<path style="fill:#0cb8f6; stroke:none;" d="M374 728L375 729L374 728z"/>
<path style="fill:#f5f8f9; stroke:none;" d="M655 729C657.894 729.695 660.989 729.061 664 729C660.895 727.699 658.192 728.058 655 729M764 728C767.973 729.734 775.885 734.875 779 731C773.806 730.84 769.49 728.019 764 728M775 728C776.103 729.457 776.543 729.897 778 731C777.101 728.876 777.124 728.899 775 728M233 729C231.647 729.859 231.645 729.823 230 730C230 731.797 230.014 731.521 231 733L235 732C234.316 730.42 234.195 730.223 233 729z"/>
<path style="fill:#0cb8f6; stroke:none;" d="M290 729L291 730L290 729M296 729L297 730L296 729M303 729L304 730L303 729M360 729L361 730L360 729z"/>
<path style="fill:#010e1a; stroke:none;" d="M360 739C361.954 738.999 364.05 739.173 365.985 738.852C378.857 736.717 362.087 721.912 360.148 733.054C359.815 734.969 360.001 737.065 360 739z"/>
<path style="fill:#0cb8f6; stroke:none;" d="M511 729L511 753C513.349 747.403 513.349 734.597 511 729z"/>
<path style="fill:#f5f8f9; stroke:none;" d="M664 729C665.624 731.044 666.643 731.896 669 733C667.376 730.956 666.357 730.104 664 729z"/>
<path style="fill:#0cb8f6; stroke:none;" d="M690 729L691 730L690 729z"/>
<path style="fill:#f5f8f9; stroke:none;" d="M762.667 729.333C762.222 729.778 763.278 729.722 763.333 729.667C763.778 729.222 762.722 729.278 762.667 729.333z"/>
<path style="fill:#0cb8f6; stroke:none;" d="M770 729L771 730L770 729M797 729L798 730L797 729z"/>
<path style="fill:#f5f8f9; stroke:none;" d="M282.333 730.667C282.278 730.722 282.222 731.778 282.667 731.333C282.722 731.278 282.778 730.222 282.333 730.667z"/>
<path style="fill:#0cb8f6; stroke:none;" d="M288 730L289 731L288 730z"/>
<path style="fill:#f5f8f9; stroke:none;" d="M470 730C470.684 731.58 470.805 731.777 472 733C471.316 731.42 471.195 731.223 470 730M649.333 730.667C649.278 730.722 649.222 731.778 649.667 731.333C649.722 731.278 649.778 730.222 649.333 730.667M654 730L655 731L654 730M670 730L670 732L672 732C671.455 730.365 671.635 730.545 670 730z"/>
<path style="fill:#0cb8f6; stroke:none;" d="M756 730L757 731L756 730z"/>
<path style="fill:#f5f8f9; stroke:none;" d="M761 730C757.7 735 757.311 740.286 759 746C759.638 743.343 758.858 740.73 759.238 738C759.638 735.135 761.283 732.858 761 730z"/>
<path style="fill:#0cb8f6; stroke:none;" d="M214 731L214 736C214.83 733.969 214.83 733.031 214 731z"/>
<path style="fill:#f5f8f9; stroke:none;" d="M653 731L654 732L653 731z"/>
<path style="fill:#0cb8f6; stroke:none;" d="M230 732L231 733L230 732M232 732L233 733L232 732z"/>
<path style="fill:#f5f8f9; stroke:none;" d="M285.333 732.667C285.278 732.722 285.222 733.778 285.667 733.333C285.722 733.278 285.778 732.222 285.333 732.667M372 732L371 738C372.654 735.823 372.994 734.575 372 732M727.333 732.667C727.278 732.722 727.222 733.778 727.667 733.333C727.722 733.278 727.778 732.222 727.333 732.667z"/>
<path style="fill:#0cb8f6; stroke:none;" d="M300.667 733.333C300.222 733.778 301.278 733.722 301.333 733.667C301.778 733.222 300.722 733.278 300.667 733.333z"/>
<path style="fill:#f5f8f9; stroke:none;" d="M472.333 733.667C472.278 733.722 472.222 734.778 472.667 734.333C472.722 734.278 472.778 733.222 472.333 733.667M724.333 733.667C724.278 733.722 724.222 734.778 724.667 734.333C724.722 734.278 724.778 733.222 724.333 733.667z"/>
<path style="fill:#0cb8f6; stroke:none;" d="M774 733L775 734L774 733z"/>
<path style="fill:#f5f8f9; stroke:none;" d="M284 734L284 737C284.696 735.446 284.696 735.554 284 734M469.333 734.667C469.278 734.722 469.222 735.778 469.667 735.333C469.722 735.278 469.778 734.222 469.333 734.667M651 734C649.869 738.764 650.092 742.479 652 747C652.723 743.574 652.049 737.367 651 734z"/>
<path style="fill:#0cb8f6; stroke:none;" d="M759 735L760 736L759 735z"/>
<path style="fill:#f5f8f9; stroke:none;" d="M280 736L280 743C281.059 740.466 281.059 738.534 280 736M647 736C647.003 739.786 647.121 743.306 648 747C649.029 743.656 648.362 739.217 647 736M216 737C216.545 738.635 216.365 738.455 218 739C217.455 737.365 217.635 737.545 216 737M254 737C256.278 739.278 262.608 736.965 266 739L265 740C266.783 739.02 266.594 739.092 267 737L254 737M394 737C398.489 738.884 404.051 736.45 407 741C407.683 739.494 407.826 738.685 408 737L394 737z"/>
<path style="fill:#0cb8f6; stroke:none;" d="M408 737L408 741C408.71 739.24 408.71 738.76 408 737z"/>
<path style="fill:#f5f8f9; stroke:none;" d="M538 737C542.25 738.783 547.214 736.702 550 741C550.683 739.494 550.826 738.685 551 737L538 737z"/>
<path style="fill:#0cb8f6; stroke:none;" d="M551 737L551 741C551.71 739.24 551.71 738.76 551 737M651 737L651 742C651.83 739.97 651.83 739.03 651 737z"/>
<path style="fill:#f5f8f9; stroke:none;" d="M691 737C695.25 738.783 700.214 736.702 703 741C703.683 739.494 703.826 738.685 704 737L691 737M730 737C730.547 738.875 731.11 740.255 732 742C732.375 739.581 731.693 738.782 730 737M229.667 738.333C229.222 738.778 230.278 738.722 230.333 738.667C230.778 738.222 229.722 738.278 229.667 738.333M374 738L375 739L374 738z"/>
<path style="fill:#0cb8f6; stroke:none;" d="M659 738C663.217 739.769 668.459 739 673 739C668.783 737.231 663.541 738 659 738z"/>
<path style="fill:#f5f8f9; stroke:none;" d="M727 738C727.547 739.875 728.11 741.255 729 743C729.375 740.581 728.693 739.782 727 738M218.667 739.333C218.222 739.778 219.278 739.722 219.333 739.667C219.778 739.222 218.722 739.278 218.667 739.333M361 739C363.613 740.098 366.165 739.993 369 740C366.387 738.902 363.836 739.007 361 739M373 739L374 740L373 739M472 739C472.547 740.875 473.11 742.255 474 744C474.375 741.581 473.693 740.782 472 739M659 739L659 743C659.685 741.752 659.749 741.452 660 740L671 740L670 749C672.048 746.006 672.157 742.5 673 739L659 739M221 740C223.332 740.984 225.457 740.981 228 741C225.668 740.016 223.543 740.019 221 740M372 740L373 741L372 740z"/>
<path style="fill:#0cb8f6; stroke:none;" d="M672 740L672 744C672.71 742.24 672.71 741.76 672 740z"/>
<path style="fill:#f5f8f9; stroke:none;" d="M252 741L252 749C253.161 746.23 253.161 743.77 252 741M361 741C362.506 741.683 363.315 741.826 365 742C363.494 741.317 362.685 741.174 361 741M689 741L689 749C690.161 746.23 690.161 743.77 689 741M796 741L796 749C797.161 746.23 797.161 743.77 796 741M230 742L231 743L230 742M366 742C366.547 743.875 367.11 745.255 368 747C368.375 744.581 367.693 743.782 366 742M668 742L668 746C668.71 744.24 668.71 743.76 668 742M755 742L755 746C755.71 744.24 755.71 743.76 755 742M231 743L230 749C231.654 746.823 231.994 745.575 231 743M370 743C370.684 744.58 370.805 744.777 372 746C371.316 744.42 371.195 744.223 370 743z"/>
<path style="fill:#0cb8f6; stroke:none;" d="M759 743L760 744L759 743z"/>
<path style="fill:#f5f8f9; stroke:none;" d="M281 744C281.726 747.573 282.758 749.302 286 751C284.484 748.504 282.941 746.178 281 744z"/>
<path style="fill:#0cb8f6; stroke:none;" d="M300 744C301.769 744.779 303.036 744.912 305 745C303.231 744.221 301.964 744.088 300 744z"/>
<path style="fill:#f5f8f9; stroke:none;" d="M475 744C475.684 745.58 475.805 745.777 477 747C476.316 745.42 476.195 745.223 475 744z"/>
<path style="fill:#0cb8f6; stroke:none;" d="M775 744C776.506 744.683 777.315 744.826 779 745C777.494 744.317 776.685 744.174 775 744z"/>
<path style="fill:#f5f8f9; stroke:none;" d="M214 749C215.781 747.768 216.94 746.859 218 745C215.383 745.953 214.541 746.302 214 749M299 748L303 746L302 750C303.656 748.314 304.251 747.254 305 745C301.994 745.221 300.635 745.455 299 748z"/>
<path style="fill:#0cb8f6; stroke:none;" d="M323 745L324 746L323 745M647 745L648 746L647 745z"/>
<path style="fill:#f5f8f9; stroke:none;" d="M774 747L777 746L773 752C776.376 750.337 777.78 748.555 779 745C776.597 745.168 775.54 745.197 774 747M732 746C732.547 747.875 733.11 749.255 734 751C734.375 748.581 733.693 747.782 732 746M756.333 746.667C756.278 746.722 756.222 747.778 756.667 747.333C756.722 747.278 756.778 746.222 756.333 746.667M760 746C760.899 748.124 760.876 748.101 763 749C761.897 747.544 761.456 747.103 760 746M339.333 747.667C339.278 747.722 339.222 748.778 339.667 748.333C339.722 748.278 339.778 747.222 339.333 747.667M373.333 747.667C373.278 747.722 373.222 748.778 373.667 748.333C373.722 748.278 373.778 747.222 373.333 747.667M649 747C649.684 748.58 649.805 748.777 651 750C650.316 748.42 650.195 748.223 649 747z"/>
<path style="fill:#0cb8f6; stroke:none;" d="M671 747L672 748L671 747z"/>
<path style="fill:#f5f8f9; stroke:none;" d="M370.333 748.667C370.278 748.722 370.222 749.778 370.667 749.333C370.722 749.278 370.778 748.222 370.333 748.667M757 748L758 749L757 748M215 749C215.545 750.635 215.365 750.455 217 751C216.455 749.365 216.635 749.545 215 749M228.667 749.333C228.222 749.778 229.278 749.722 229.333 749.667C229.778 749.222 228.722 749.278 228.667 749.333M291 750C293.523 750.99 295.358 750.617 298 750C295.607 749.259 293.507 749.698 291 750M325 749C327.308 750.759 329.092 750.917 332 751C329.749 749.911 327.465 749.481 325 749M338 749L339 750L338 749M374 749C374.216 751.45 374.436 751.686 372 752C373.769 752.779 375.036 752.912 377 753C376.064 751.051 375.608 750.45 374 749M550.333 749.667C550.278 749.722 550.222 750.778 550.667 750.333C550.722 750.278 550.778 749.222 550.333 749.667M655 749C657.585 750.769 659.884 750.927 663 751C660.439 749.768 657.822 749.365 655 749M669 749L670 750L669 749M758 749L759 750L758 749M763 749C765.308 750.759 767.092 750.917 770 751C767.748 749.911 765.465 749.481 763 749M770.667 749.333C770.223 749.777 771.278 749.722 771.333 749.667C771.778 749.222 770.722 749.278 770.667 749.333M222 750C224.052 750.874 225.747 750.953 228 751C225.948 750.126 224.253 750.047 222 750M232 750L233 751L232 750M337 750L338 751L337 750M395 750C398.697 751.552 403.017 751 407 751C401.563 752.607 395.642 752 390 752C395.469 754.295 403.099 753 409 753L409 750L395 750M479.333 750.667C479.278 750.722 479.222 751.778 479.667 751.333C479.722 751.278 479.778 750.222 479.333 750.667M668 750L669 751L668 750M217 751C218.788 752.422 219.706 752.697 222 753C220.307 751.938 218.96 751.48 217 751M230.667 751.333C230.222 751.778 231.278 751.722 231.333 751.667C231.778 751.222 230.722 751.278 230.667 751.333M286 751C287.543 752.267 288.048 752.489 290 753C288.542 751.919 287.752 751.564 286 751M295 752C297.044 752.774 297.845 752.592 300 752C298.154 751.532 296.931 751.699 295 752M666.667 751.333C666.222 751.778 667.278 751.722 667.333 751.667C667.778 751.222 666.722 751.278 666.667 751.333M735 751C736.734 753.003 738.355 752.923 741 753C739.059 752.049 737.102 751.561 735 751M760.667 751.333C760.222 751.778 761.278 751.722 761.333 751.667C761.778 751.222 760.722 751.278 760.667 751.333M228.667 752.333C228.222 752.778 229.278 752.722 229.333 752.667C229.778 752.222 228.722 752.278 228.667 752.333M324 752C327.432 753.44 331.3 753 335 753C331.568 751.56 327.7 752 324 752z"/>
<path style="fill:#0cb8f6; stroke:none;" d="M360 752L361 753L360 752M377 752L378 753L377 752z"/>
<path style="fill:#f5f8f9; stroke:none;" d="M628 752C629.769 752.779 631.036 752.912 633 753C631.231 752.221 629.964 752.088 628 752M662 752C663.506 752.683 664.315 752.826 666 753C664.494 752.317 663.685 752.174 662 752M762 752C765.432 753.44 769.3 753 773 753C769.568 751.56 765.7 752 762 752z"/>
<path style="fill:#0cb8f6; stroke:none;" d="M326 753C328.332 753.984 330.457 753.981 333 754C330.668 753.016 328.543 753.019 326 753M764 753C766.331 753.984 768.457 753.981 771 754C768.668 753.015 766.543 753.019 764 753z"/>
</svg>
